<?xml version="1.0" standalone="no"?>
<!DOCTYPE svg PUBLIC "-//W3C//DTD SVG 20010904//EN"
 "http://www.w3.org/TR/2001/REC-SVG-20010904/DTD/svg10.dtd">
<svg version="1.0" xmlns="http://www.w3.org/2000/svg"
 width="602.000000pt" height="118.000000pt" viewBox="0 0 602.000000 118.000000"
 preserveAspectRatio="xMidYMid meet">

<g transform="translate(0.000000,118.000000) scale(0.100000,-0.100000)"
fill="#000000" stroke="none">
<path d="M415 1028 c-129 -24 -236 -109 -294 -232 -40 -86 -55 -156 -55 -271
0 -300 180 -495 459 -495 208 0 360 106 425 296 30 85 44 241 30 325 -25 148
-126 292 -240 343 -96 43 -213 56 -325 34z m256 -165 c100 -55 155 -171 152
-321 -3 -158 -58 -275 -156 -336 -41 -25 -61 -30 -130 -34 -78 -4 -86 -2 -147
30 -75 39 -115 89 -145 184 -26 80 -24 208 5 293 53 159 140 224 291 218 63
-3 86 -9 130 -34z"/>
<path d="M1928 960 l4 -70 104 0 104 0 0 -425 0 -425 80 0 80 0 0 425 0 425
110 0 110 0 0 70 0 70 -297 0 -298 0 3 -70z"/>
<path d="M2900 960 l0 -70 105 0 105 0 0 -425 0 -425 80 0 80 0 0 425 0 425
110 0 110 0 0 70 0 70 -295 0 -295 0 0 -70z"/>
<path d="M3590 531 l0 -498 73 -6 c39 -3 76 -1 81 4 6 5 106 9 223 9 l213 0 0
65 0 65 -215 0 -215 0 0 143 0 144 113 6 c61 4 154 7 205 7 l92 0 0 65 0 65
-205 0 -205 0 0 145 0 145 210 0 210 0 0 70 0 70 -290 0 -290 0 0 -499z"/>
<path d="M5180 918 c0 -62 -2 -158 -5 -213 -3 -55 -7 -227 -10 -382 l-5 -283
80 0 80 0 1 200 c1 110 3 205 4 210 1 6 3 17 4 25 1 13 34 15 231 15 l230 0 0
-220 0 -220 74 0 75 0 3 98 c2 53 5 272 6 485 l3 388 -78 -3 c-53 -2 -78 -7
-79 -15 -1 -7 -2 -94 -3 -193 l-1 -179 -231 0 -231 1 3 199 4 199 -77 0 -78 0
0 -112z"/>
<path d="M1110 531 l0 -491 75 0 75 0 0 198 0 199 188 6 c222 8 270 19 342 84
73 65 93 115 88 216 -4 94 -23 142 -79 198 -66 66 -99 72 -411 77 l-278 3 0
-490z m536 333 c95 -45 97 -204 4 -259 -31 -18 -56 -20 -212 -23 l-178 -4 0
151 0 151 176 0 c142 0 183 -3 210 -16z"/>
<path d="M2630 525 l0 -485 80 0 80 0 0 485 0 485 -80 0 -80 0 0 -485z"/>
<path d="M4646 999 c-64 -15 -153 -68 -205 -124 -183 -193 -186 -516 -6 -713
59 -65 103 -95 184 -122 145 -48 328 -2 435 109 l29 30 -48 53 c-26 29 -54 59
-61 67 -11 12 -19 9 -50 -19 -143 -125 -328 -80 -416 100 -31 62 -31 204 -1
270 46 101 124 159 227 167 72 6 128 -13 188 -66 l36 -31 61 67 61 67 -30 31
c-95 98 -266 146 -404 114z"/>
</g>
</svg>
