<svg version="1.1" id="Layer_1" xmlns="http://www.w3.org/2000/svg" xmlns:xlink="http://www.w3.org/1999/xlink" x="0px" y="0px"
	 width="100%" viewBox="0 0 108 118" enable-background="new 0 0 108 118" xml:space="preserve">
<path fill="#000000" opacity="1.000000" stroke="none" 
	d="
M62.000000,119.000000 
	C41.333332,119.000000 21.166666,119.000000 1.000000,119.000000 
	C1.000000,79.666664 1.000000,40.333332 1.000000,1.000000 
	C37.000000,1.000000 73.000000,1.000000 109.000000,1.000000 
	C109.000000,40.333332 109.000000,79.666664 109.000000,119.000000 
	C93.500000,119.000000 78.000000,119.000000 62.000000,119.000000 
M7.508493,65.878990 
	C5.784837,76.396194 8.897960,86.021408 13.786464,94.971931 
	C18.312418,103.258659 24.955854,109.386856 34.139519,113.018433 
	C43.649715,116.779129 53.336483,117.044388 62.954102,115.627869 
	C76.221771,113.673790 86.495827,106.850380 92.988792,94.498138 
	C97.749931,85.440506 99.626144,75.902451 100.356339,65.203636 
	C100.231659,62.555840 100.338936,59.872810 99.942993,57.266220 
	C98.007195,44.522121 93.355896,33.149002 83.293869,24.470932 
	C74.026901,16.478571 63.068333,14.779328 51.319805,14.938503 
	C26.478220,15.275066 12.183434,30.847160 8.082491,53.605034 
	C7.400173,57.391510 7.880879,61.387562 7.508493,65.878990 
z"/>
<path fill="#6A053D" opacity="1.000000" stroke="none" 
	d="
M7.824149,65.286766 
	C7.880879,61.387562 7.400173,57.391510 8.082491,53.605034 
	C12.183434,30.847160 26.478220,15.275066 51.319805,14.938503 
	C63.068333,14.779328 74.026901,16.478571 83.293869,24.470932 
	C93.355896,33.149002 98.007195,44.522121 99.942993,57.266220 
	C100.338936,59.872810 100.231659,62.555840 99.859543,65.472404 
	C94.195892,65.585297 89.029045,65.429413 83.615707,64.928055 
	C83.368202,55.878639 81.141037,47.755962 76.320213,40.537586 
	C70.479851,31.792622 61.639000,28.743378 51.644058,29.414490 
	C39.265499,30.245655 30.994211,37.109871 27.137175,48.783649 
	C25.286142,54.386021 24.463840,60.328281 22.797688,65.923203 
	C17.554533,65.582123 12.689341,65.434441 7.824149,65.286766 
z"/>
<path fill="#280452" opacity="1.000000" stroke="none" 
	d="
M83.862190,65.273537 
	C89.029045,65.429413 94.195892,65.585297 99.781784,65.828049 
	C99.626144,75.902451 97.749931,85.440506 92.988792,94.498138 
	C86.495827,106.850380 76.221771,113.673790 62.954102,115.627869 
	C53.336483,117.044388 43.649715,116.779129 34.139519,113.018433 
	C24.955854,109.386856 18.312418,103.258659 13.786464,94.971931 
	C8.897960,86.021408 5.784837,76.396194 7.666321,65.582878 
	C12.689341,65.434441 17.554533,65.582123 22.916264,66.185211 
	C24.097752,74.794052 26.080664,82.484718 30.262123,89.677734 
	C35.806946,99.216026 44.712589,101.835419 54.662430,101.865265 
	C64.584618,101.895020 71.671303,96.771423 76.949806,88.405693 
	C81.470627,81.240799 81.945129,73.092262 83.862190,65.273537 
z"/>
<path fill="#000000" opacity="1.000000" stroke="none" 
	d="
M83.615707,64.928055 
	C81.945129,73.092262 81.470627,81.240799 76.949806,88.405693 
	C71.671303,96.771423 64.584618,101.895020 54.662430,101.865265 
	C44.712589,101.835419 35.806946,99.216026 30.262123,89.677734 
	C26.080664,82.484718 24.097752,74.794052 23.294228,66.378616 
	C24.463840,60.328281 25.286142,54.386021 27.137175,48.783649 
	C30.994211,37.109871 39.265499,30.245655 51.644058,29.414490 
	C61.639000,28.743378 70.479851,31.792622 76.320213,40.537586 
	C81.141037,47.755962 83.368202,55.878639 83.615707,64.928055 
z"/>
</svg>